<mxfile host="app.diagrams.net" modified="2024-05-07T20:14:01.040Z" agent="Mozilla/5.0 (X11; Linux x86_64) AppleWebKit/537.36 (KHTML, like Gecko) Chrome/124.0.0.0 Safari/537.36" etag="XWVQLv96aDNApPc5ZY_f" version="24.3.1" type="github" pages="2">
  <diagram name="Overview" id="4yG-GDEzLWlXpBZ6M8Au">
    <mxGraphModel dx="1434" dy="820" grid="1" gridSize="10" guides="1" tooltips="1" connect="1" arrows="1" fold="1" page="1" pageScale="1" pageWidth="850" pageHeight="1100" math="0" shadow="0">
      <root>
        <mxCell id="0" />
        <mxCell id="1" parent="0" />
        <mxCell id="WFqHVdjfjFdFmk0O2PWR-1" value="UDP Packet" style="rounded=0;whiteSpace=wrap;html=1;fillColor=#f8cecc;strokeColor=#b85450;" parent="1" vertex="1">
          <mxGeometry x="30" y="360" width="800" height="40" as="geometry" />
        </mxCell>
        <mxCell id="WFqHVdjfjFdFmk0O2PWR-3" value="RFT Packet" style="rounded=0;whiteSpace=wrap;html=1;fillColor=#ffe6cc;strokeColor=#d79b00;" parent="1" vertex="1">
          <mxGeometry x="80" y="320" width="750" height="40" as="geometry" />
        </mxCell>
        <mxCell id="WFqHVdjfjFdFmk0O2PWR-4" value="Version" style="rounded=0;whiteSpace=wrap;html=1;fillColor=#e1d5e7;strokeColor=#9673a6;" parent="1" vertex="1">
          <mxGeometry x="80" y="260" width="40" height="40" as="geometry" />
        </mxCell>
        <mxCell id="WFqHVdjfjFdFmk0O2PWR-5" value="Conn&lt;div&gt;ID&lt;/div&gt;" style="rounded=0;whiteSpace=wrap;html=1;fillColor=#e1d5e7;strokeColor=#9673a6;" parent="1" vertex="1">
          <mxGeometry x="120" y="260" width="40" height="40" as="geometry" />
        </mxCell>
        <mxCell id="WFqHVdjfjFdFmk0O2PWR-6" value="&lt;div&gt;&lt;span style=&quot;background-color: initial;&quot;&gt;#&amp;nbsp;&lt;/span&gt;&lt;span style=&quot;color: rgba(0, 0, 0, 0); font-family: monospace; font-size: 0px; text-align: start; text-wrap: nowrap; background-color: initial;&quot;&gt;%3CmxGraphModel%3E%3Croot%3E%3CmxCell%20id%3D%220%22%2F%3E%3CmxCell%20id%3D%221%22%20parent%3D%220%22%2F%3E%3CmxCell%20id%3D%222%22%20value%3D%22Conn%26lt%3Bdiv%26gt%3BID%26lt%3B%2Fdiv%26gt%3B%22%20style%3D%22rounded%3D0%3BwhiteSpace%3Dwrap%3Bhtml%3D1%3B%22%20vertex%3D%221%22%20parent%3D%221%22%3E%3CmxGeometry%20x%3D%22120%22%20y%3D%22280%22%20width%3D%2240%22%20height%3D%2240%22%20as%3D%22geometry%22%2F%3E%3C%2FmxCell%3E%3C%2Froot%3E%3C%2FmxGraphModel%3E&lt;/span&gt;&lt;span style=&quot;background-color: initial;&quot;&gt;of&lt;/span&gt;&lt;/div&gt;&lt;div&gt;&lt;span style=&quot;background-color: initial;&quot;&gt;Frames&lt;/span&gt;&lt;br&gt;&lt;/div&gt;" style="rounded=0;whiteSpace=wrap;html=1;fillColor=#e1d5e7;strokeColor=#9673a6;" parent="1" vertex="1">
          <mxGeometry x="160" y="260" width="40" height="40" as="geometry" />
        </mxCell>
        <mxCell id="WFqHVdjfjFdFmk0O2PWR-7" value="&lt;div&gt;&lt;span style=&quot;background-color: initial;&quot;&gt;MAC&lt;/span&gt;&lt;br&gt;&lt;/div&gt;" style="rounded=0;whiteSpace=wrap;html=1;fillColor=#e1d5e7;strokeColor=#9673a6;" parent="1" vertex="1">
          <mxGeometry x="200" y="260" width="40" height="40" as="geometry" />
        </mxCell>
        <mxCell id="WFqHVdjfjFdFmk0O2PWR-8" value="Payload" style="rounded=0;whiteSpace=wrap;html=1;fillColor=#fff2cc;strokeColor=#d6b656;" parent="1" vertex="1">
          <mxGeometry x="240" y="260" width="590" height="60" as="geometry" />
        </mxCell>
        <mxCell id="WFqHVdjfjFdFmk0O2PWR-9" value="Header" style="rounded=0;whiteSpace=wrap;html=1;fillColor=#e1d5e7;strokeColor=#9673a6;" parent="1" vertex="1">
          <mxGeometry x="80" y="300" width="160" height="20" as="geometry" />
        </mxCell>
        <mxCell id="WFqHVdjfjFdFmk0O2PWR-10" value="Data Frame" style="rounded=0;whiteSpace=wrap;html=1;fillColor=#d5e8d4;strokeColor=#82b366;" parent="1" vertex="1">
          <mxGeometry x="240" y="220" width="470" height="40" as="geometry" />
        </mxCell>
        <mxCell id="WFqHVdjfjFdFmk0O2PWR-11" value="Window&lt;div&gt;Frame&lt;/div&gt;" style="rounded=0;whiteSpace=wrap;html=1;fillColor=#dae8fc;strokeColor=#6c8ebf;" parent="1" vertex="1">
          <mxGeometry x="710" y="220" width="60" height="40" as="geometry" />
        </mxCell>
        <mxCell id="WFqHVdjfjFdFmk0O2PWR-12" value="ACK&lt;div&gt;Frame&lt;/div&gt;" style="rounded=0;whiteSpace=wrap;html=1;fillColor=#f5f5f5;fontColor=#333333;strokeColor=#666666;" parent="1" vertex="1">
          <mxGeometry x="770" y="220" width="60" height="40" as="geometry" />
        </mxCell>
      </root>
    </mxGraphModel>
  </diagram>
  <diagram id="407a9aoooXdh58ZIU38Z" name="Example">
    <mxGraphModel dx="989" dy="566" grid="1" gridSize="10" guides="1" tooltips="1" connect="1" arrows="1" fold="1" page="1" pageScale="1" pageWidth="800" pageHeight="800" math="0" shadow="0">
      <root>
        <mxCell id="0" />
        <mxCell id="1" parent="0" />
        <mxCell id="e7QpVWwQLQJaXsKN2vLg-4" style="edgeStyle=orthogonalEdgeStyle;rounded=0;orthogonalLoop=1;jettySize=auto;html=1;shape=flexArrow;fillColor=#d5e8d4;strokeColor=#82b366;" edge="1" parent="1" source="e7QpVWwQLQJaXsKN2vLg-2">
          <mxGeometry relative="1" as="geometry">
            <mxPoint x="160" y="440" as="targetPoint" />
          </mxGeometry>
        </mxCell>
        <mxCell id="e7QpVWwQLQJaXsKN2vLg-2" value="&lt;b&gt;Client&lt;/b&gt;" style="rounded=0;whiteSpace=wrap;html=1;fillColor=#d5e8d4;strokeColor=#82b366;" vertex="1" parent="1">
          <mxGeometry x="120" y="80" width="80" height="40" as="geometry" />
        </mxCell>
        <mxCell id="e7QpVWwQLQJaXsKN2vLg-5" style="edgeStyle=orthogonalEdgeStyle;rounded=0;orthogonalLoop=1;jettySize=auto;html=1;shape=flexArrow;fillColor=#dae8fc;strokeColor=#6c8ebf;" edge="1" parent="1" source="e7QpVWwQLQJaXsKN2vLg-3">
          <mxGeometry relative="1" as="geometry">
            <mxPoint x="560" y="440" as="targetPoint" />
          </mxGeometry>
        </mxCell>
        <mxCell id="e7QpVWwQLQJaXsKN2vLg-3" value="&lt;b&gt;Server&lt;/b&gt;" style="rounded=0;whiteSpace=wrap;html=1;fillColor=#dae8fc;strokeColor=#6c8ebf;" vertex="1" parent="1">
          <mxGeometry x="520" y="80" width="80" height="40" as="geometry" />
        </mxCell>
        <mxCell id="e7QpVWwQLQJaXsKN2vLg-6" value="" style="endArrow=classic;html=1;rounded=0;fillColor=#d5e8d4;strokeColor=#82b366;" edge="1" parent="1">
          <mxGeometry width="50" height="50" relative="1" as="geometry">
            <mxPoint x="170" y="130" as="sourcePoint" />
            <mxPoint x="550" y="160" as="targetPoint" />
          </mxGeometry>
        </mxCell>
        <mxCell id="e7QpVWwQLQJaXsKN2vLg-9" value="&lt;font color=&quot;#ff8000&quot;&gt;&lt;b&gt;[CID:0, FN:0]&lt;/b&gt;&lt;/font&gt;" style="edgeLabel;html=1;align=center;verticalAlign=middle;resizable=0;points=[];" vertex="1" connectable="0" parent="e7QpVWwQLQJaXsKN2vLg-6">
          <mxGeometry x="-0.0006" y="1" relative="1" as="geometry">
            <mxPoint as="offset" />
          </mxGeometry>
        </mxCell>
        <mxCell id="e7QpVWwQLQJaXsKN2vLg-10" value="" style="endArrow=none;html=1;rounded=0;startArrow=classic;startFill=1;endFill=0;fillColor=#dae8fc;strokeColor=#6c8ebf;" edge="1" parent="1">
          <mxGeometry width="50" height="50" relative="1" as="geometry">
            <mxPoint x="170" y="200" as="sourcePoint" />
            <mxPoint x="550" y="170" as="targetPoint" />
          </mxGeometry>
        </mxCell>
        <mxCell id="e7QpVWwQLQJaXsKN2vLg-11" value="&lt;font color=&quot;#ff8000&quot;&gt;&lt;b&gt;[CID:1337, FN:0]&lt;/b&gt;&lt;/font&gt;" style="edgeLabel;html=1;align=center;verticalAlign=middle;resizable=0;points=[];" vertex="1" connectable="0" parent="e7QpVWwQLQJaXsKN2vLg-10">
          <mxGeometry x="-0.0006" y="1" relative="1" as="geometry">
            <mxPoint as="offset" />
          </mxGeometry>
        </mxCell>
        <mxCell id="e7QpVWwQLQJaXsKN2vLg-15" value="" style="endArrow=classic;html=1;rounded=0;fillColor=#d5e8d4;strokeColor=#82b366;" edge="1" parent="1">
          <mxGeometry width="50" height="50" relative="1" as="geometry">
            <mxPoint x="170" y="210" as="sourcePoint" />
            <mxPoint x="550" y="240" as="targetPoint" />
          </mxGeometry>
        </mxCell>
        <mxCell id="e7QpVWwQLQJaXsKN2vLg-16" value="&lt;b&gt;&lt;font color=&quot;#ff8000&quot;&gt;[CID:1337, FN:1]&lt;/font&gt; &lt;font color=&quot;#6600cc&quot;&gt;[CMD, FID:1, READ, &#39;/README.md&#39;, OFF:0, LEN:0]&lt;/font&gt;&lt;/b&gt;" style="edgeLabel;html=1;align=center;verticalAlign=middle;resizable=0;points=[];" vertex="1" connectable="0" parent="e7QpVWwQLQJaXsKN2vLg-15">
          <mxGeometry x="-0.0006" y="1" relative="1" as="geometry">
            <mxPoint as="offset" />
          </mxGeometry>
        </mxCell>
        <mxCell id="e7QpVWwQLQJaXsKN2vLg-17" value="" style="endArrow=none;html=1;rounded=0;startArrow=classic;startFill=1;endFill=0;fillColor=#dae8fc;strokeColor=#6c8ebf;" edge="1" parent="1">
          <mxGeometry width="50" height="50" relative="1" as="geometry">
            <mxPoint x="170" y="280" as="sourcePoint" />
            <mxPoint x="550" y="250" as="targetPoint" />
          </mxGeometry>
        </mxCell>
        <mxCell id="e7QpVWwQLQJaXsKN2vLg-18" value="&lt;b&gt;&lt;font color=&quot;#ff8000&quot;&gt;[CID:1337, FN:2]&lt;/font&gt; &lt;font color=&quot;#007fff&quot;&gt;[ACK, FID: 1]&lt;/font&gt; &lt;font color=&quot;#ff0000&quot;&gt;[DATA, FID:2, OFF:0, LEN: 1024]&lt;/font&gt;&lt;/b&gt;" style="edgeLabel;html=1;align=center;verticalAlign=middle;resizable=0;points=[];" vertex="1" connectable="0" parent="e7QpVWwQLQJaXsKN2vLg-17">
          <mxGeometry x="-0.0006" y="1" relative="1" as="geometry">
            <mxPoint as="offset" />
          </mxGeometry>
        </mxCell>
        <mxCell id="e7QpVWwQLQJaXsKN2vLg-19" value="" style="endArrow=none;html=1;rounded=0;startArrow=classic;startFill=1;endFill=0;fillColor=#dae8fc;strokeColor=#6c8ebf;" edge="1" parent="1">
          <mxGeometry width="50" height="50" relative="1" as="geometry">
            <mxPoint x="170" y="310" as="sourcePoint" />
            <mxPoint x="550" y="280" as="targetPoint" />
          </mxGeometry>
        </mxCell>
        <mxCell id="e7QpVWwQLQJaXsKN2vLg-20" value="&lt;b&gt;&lt;font color=&quot;#ff8000&quot;&gt;[CID:1337, FN:1]&lt;/font&gt; &lt;font color=&quot;#ff0000&quot;&gt;[DATA, FID:3, OFF:2, LEN: 1024]&lt;/font&gt;&lt;/b&gt;" style="edgeLabel;html=1;align=center;verticalAlign=middle;resizable=0;points=[];" vertex="1" connectable="0" parent="e7QpVWwQLQJaXsKN2vLg-19">
          <mxGeometry x="-0.0006" y="1" relative="1" as="geometry">
            <mxPoint as="offset" />
          </mxGeometry>
        </mxCell>
        <mxCell id="e7QpVWwQLQJaXsKN2vLg-22" value="" style="endArrow=classic;html=1;rounded=0;fillColor=#d5e8d4;strokeColor=#82b366;" edge="1" parent="1">
          <mxGeometry width="50" height="50" relative="1" as="geometry">
            <mxPoint x="170" y="320" as="sourcePoint" />
            <mxPoint x="550" y="350" as="targetPoint" />
          </mxGeometry>
        </mxCell>
        <mxCell id="e7QpVWwQLQJaXsKN2vLg-23" value="&lt;b&gt;&lt;font color=&quot;#ff8000&quot;&gt;[CID:1337, FN:2]&lt;/font&gt; &lt;font color=&quot;#007fff&quot;&gt;[ACK, FID:3]&lt;/font&gt;&lt;font color=&quot;#808080&quot;&gt; [WIN, SIZE: 700]&amp;nbsp;&lt;/font&gt;&lt;/b&gt;" style="edgeLabel;html=1;align=center;verticalAlign=middle;resizable=0;points=[];" vertex="1" connectable="0" parent="e7QpVWwQLQJaXsKN2vLg-22">
          <mxGeometry x="-0.0006" y="1" relative="1" as="geometry">
            <mxPoint as="offset" />
          </mxGeometry>
        </mxCell>
        <mxCell id="e7QpVWwQLQJaXsKN2vLg-24" value="" style="endArrow=none;html=1;rounded=0;startArrow=classic;startFill=1;endFill=0;fillColor=#dae8fc;strokeColor=#6c8ebf;" edge="1" parent="1">
          <mxGeometry width="50" height="50" relative="1" as="geometry">
            <mxPoint x="170" y="390" as="sourcePoint" />
            <mxPoint x="550" y="360" as="targetPoint" />
          </mxGeometry>
        </mxCell>
        <mxCell id="e7QpVWwQLQJaXsKN2vLg-25" value="&lt;b&gt;&lt;font color=&quot;#ff8000&quot;&gt;[CID:1337, FN:1]&lt;/font&gt; &lt;font color=&quot;#ff0000&quot;&gt;[DATA, FID:4, OFF:2, LEN: 123, FIN]&lt;/font&gt;&lt;/b&gt;" style="edgeLabel;html=1;align=center;verticalAlign=middle;resizable=0;points=[];" vertex="1" connectable="0" parent="e7QpVWwQLQJaXsKN2vLg-24">
          <mxGeometry x="-0.0006" y="1" relative="1" as="geometry">
            <mxPoint as="offset" />
          </mxGeometry>
        </mxCell>
      </root>
    </mxGraphModel>
  </diagram>
</mxfile>
